<?xml version="1.0" standalone="no"?>
<!DOCTYPE svg PUBLIC "-//W3C//DTD SVG 20010904//EN" "http://www.w3.org/TR/2001/REC-SVG-20010904/DTD/svg10.dtd">
<svg version="1.0" xmlns="http://www.w3.org/2000/svg" width="512.000000pt" height="512.000000pt" viewBox="0 0 512.000000 512.000000" preserveAspectRatio="xMidYMid meet">
    <g transform="translate(0.000000,512.000000) scale(0.100000,-0.100000)" fill="#000000" stroke="none">
        <path d="M2355 5114 c-27 -2 -108 -13 -180 -25 -562 -89 -1037 -331 -1432 -730 -404 -408 -641 -894 -725 -1484 -17 -118 -17 -512 0 -630 70 -488 251 -918 540 -1280 97 -121 275 -299 397 -398 308 -249 708 -438 1080 -511 234 -46 283 -50 525 -50 242 0 291 4 525 50 371 73 796 275 1090 519 517 428 830 992 927 1670 17 116 16 511 0 630 -95 675 -411 1244 -927 1670 -214 177 -499 337 -765 430 -269 93 -503 135 -795 139 -115 2 -232 2 -260 0z m321 -449 c27 -16 54 -43 71 -73 l28 -47 5 -578 5 -578 82 -34 c216 -88 371 -235 465 -442 53 -118 70 -203 71 -353 0 -159 -20 -247 -84 -377 -107 -217 -276 -361 -521 -446 -17 -6 -18 -42 -18 -564 0 -333 -4 -572 -10 -592 -15 -52 -56 -105 -103 -132 -33 -18 -56 -24 -107 -24 -71 1 -107 15 -154 61 -64 64 -61 33 -66 667 l-5 578 -72 28 c-304 119 -504 380 -545 709 -46 377 182 751 545 893 l72 28 5 578 c6 646 1 605 79 676 22 20 53 39 68 43 16 3 33 8 38 10 26 10 111 -8 151 -31z"/>
        <path d="M2422 2956 c-117 -45 -189 -111 -245 -226 -29 -59 -31 -74 -32 -165 0 -81 4 -110 22 -155 49 -119 146 -210 271 -251 53 -18 80 -21 148 -16 157 9 288 100 358 247 29 60 31 73 31 170 0 100 -2 109 -34 175 -44 89 -116 162 -204 205 -58 28 -79 33 -160 37 -79 3 -101 0 -155 -21z"/>
    </g>
</svg>
